<svg xmlns="http://www.w3.org/2000/svg" width="1320" height="430" viewBox="0 0 1320 430">
<rect width="100%" height="100%" fill="#f8fafc"/>
<text x="24.0" y="30.0" font-size="22" fill="#111827" font-family="Arial, sans-serif" text-anchor="start">Path 1 CUDA Scaling-Law Scout</text>
<text x="24.0" y="50.0" font-size="11" fill="#4b5563" font-family="Arial, sans-serif" text-anchor="start">Aggregated SageMaker parity runs. FLOPs use 6ND nominal; runtime-adjusted FLOPs scale by attention tok/s divided by lane tok/s within each run.</text>
<rect x="24.0" y="76.0" width="400.0" height="310.0" fill="#ffffff" stroke="#d7dde8"/>
<text x="38.0" y="98.0" font-size="14" fill="#111827" font-family="Arial, sans-serif" text-anchor="start">Loss vs Parameters</text>
<line x1="78.0" y1="110.0" x2="78.0" y2="342.0" stroke="#e7ebf1" stroke-width="1.0"/>
<line x1="78.0" y1="110.0" x2="410.0" y2="110.0" stroke="#e7ebf1" stroke-width="1.0"/>
<line x1="161.0" y1="110.0" x2="161.0" y2="342.0" stroke="#e7ebf1" stroke-width="1.0"/>
<line x1="78.0" y1="168.0" x2="410.0" y2="168.0" stroke="#e7ebf1" stroke-width="1.0"/>
<line x1="244.0" y1="110.0" x2="244.0" y2="342.0" stroke="#e7ebf1" stroke-width="1.0"/>
<line x1="78.0" y1="226.0" x2="410.0" y2="226.0" stroke="#e7ebf1" stroke-width="1.0"/>
<line x1="327.0" y1="110.0" x2="327.0" y2="342.0" stroke="#e7ebf1" stroke-width="1.0"/>
<line x1="78.0" y1="284.0" x2="410.0" y2="284.0" stroke="#e7ebf1" stroke-width="1.0"/>
<line x1="410.0" y1="110.0" x2="410.0" y2="342.0" stroke="#e7ebf1" stroke-width="1.0"/>
<line x1="78.0" y1="342.0" x2="410.0" y2="342.0" stroke="#e7ebf1" stroke-width="1.0"/>
<line x1="78.0" y1="342.0" x2="410.0" y2="342.0" stroke="#9aa5b5" stroke-width="1.2"/>
<line x1="78.0" y1="110.0" x2="78.0" y2="342.0" stroke="#9aa5b5" stroke-width="1.2"/>
<text x="244.0" y="374.0" font-size="11" fill="#4b5563" font-family="Arial, sans-serif" text-anchor="middle">Parameters</text>
<text x="36.0" y="226.0" font-size="11" fill="#4b5563" font-family="Arial, sans-serif" text-anchor="middle">Eval loss</text>
<text x="78.0" y="358.0" font-size="9" fill="#697386" font-family="Arial, sans-serif" text-anchor="middle">9.8e6</text>
<text x="410.0" y="358.0" font-size="9" fill="#697386" font-family="Arial, sans-serif" text-anchor="middle">9.9e6</text>
<text x="70.0" y="346.0" font-size="9" fill="#697386" font-family="Arial, sans-serif" text-anchor="end">4.15</text>
<text x="70.0" y="114.0" font-size="9" fill="#697386" font-family="Arial, sans-serif" text-anchor="end">7.06</text>
<circle cx="105.7" cy="138.6" r="4.7" fill="#263f8f" stroke="#ffffff" stroke-width="1.4"/>
<text x="112.7" y="133.6" font-size="8" fill="#263f8f" font-family="Arial, sans-serif" text-anchor="start">A/1M</text>
<circle cx="202.7" cy="132.5" r="4.7" fill="#2f9d8f" stroke="#ffffff" stroke-width="1.4"/>
<text x="209.7" y="127.5" font-size="8" fill="#2f9d8f" font-family="Arial, sans-serif" text-anchor="start">B(x)/1M</text>
<circle cx="382.3" cy="138.0" r="4.7" fill="#d45d32" stroke="#ffffff" stroke-width="1.4"/>
<text x="389.3" y="133.0" font-size="8" fill="#d45d32" font-family="Arial, sans-serif" text-anchor="start">RGRP-control/1M</text>
<circle cx="105.7" cy="256.9" r="4.7" fill="#263f8f" stroke="#ffffff" stroke-width="1.4"/>
<text x="112.7" y="251.9" font-size="8" fill="#263f8f" font-family="Arial, sans-serif" text-anchor="start">A/33M</text>
<circle cx="202.7" cy="253.6" r="4.7" fill="#2f9d8f" stroke="#ffffff" stroke-width="1.4"/>
<text x="209.7" y="248.6" font-size="8" fill="#2f9d8f" font-family="Arial, sans-serif" text-anchor="start">B(x)/33M</text>
<circle cx="382.3" cy="261.9" r="4.7" fill="#d45d32" stroke="#ffffff" stroke-width="1.4"/>
<text x="389.3" y="256.9" font-size="8" fill="#d45d32" font-family="Arial, sans-serif" text-anchor="start">RGRP-control/33M</text>
<circle cx="105.7" cy="301.3" r="5.4" fill="#263f8f" stroke="#ffffff" stroke-width="1.4"/>
<text x="112.7" y="296.3" font-size="8" fill="#263f8f" font-family="Arial, sans-serif" text-anchor="start">A/134M</text>
<circle cx="202.7" cy="300.5" r="5.4" fill="#2f9d8f" stroke="#ffffff" stroke-width="1.4"/>
<text x="209.7" y="295.5" font-size="8" fill="#2f9d8f" font-family="Arial, sans-serif" text-anchor="start">B(x)/134M</text>
<circle cx="382.3" cy="305.3" r="5.4" fill="#d45d32" stroke="#ffffff" stroke-width="1.4"/>
<text x="389.3" y="300.3" font-size="8" fill="#d45d32" font-family="Arial, sans-serif" text-anchor="start">RGRP-control/134M</text>
<circle cx="105.7" cy="315.1" r="4.7" fill="#263f8f" stroke="#ffffff" stroke-width="1.4"/>
<text x="112.7" y="310.1" font-size="8" fill="#263f8f" font-family="Arial, sans-serif" text-anchor="start">A/249M</text>
<circle cx="202.7" cy="315.2" r="4.7" fill="#2f9d8f" stroke="#ffffff" stroke-width="1.4"/>
<text x="209.7" y="310.2" font-size="8" fill="#2f9d8f" font-family="Arial, sans-serif" text-anchor="start">B(x)/249M</text>
<circle cx="382.3" cy="319.5" r="4.7" fill="#d45d32" stroke="#ffffff" stroke-width="1.4"/>
<text x="389.3" y="314.5" font-size="8" fill="#d45d32" font-family="Arial, sans-serif" text-anchor="start">RGRP-control/249M</text>
<rect x="454.0" y="76.0" width="400.0" height="310.0" fill="#ffffff" stroke="#d7dde8"/>
<text x="468.0" y="98.0" font-size="14" fill="#111827" font-family="Arial, sans-serif" text-anchor="start">Parameters vs Runtime-Adjusted FLOPs</text>
<line x1="508.0" y1="110.0" x2="508.0" y2="342.0" stroke="#e7ebf1" stroke-width="1.0"/>
<line x1="508.0" y1="110.0" x2="840.0" y2="110.0" stroke="#e7ebf1" stroke-width="1.0"/>
<line x1="591.0" y1="110.0" x2="591.0" y2="342.0" stroke="#e7ebf1" stroke-width="1.0"/>
<line x1="508.0" y1="168.0" x2="840.0" y2="168.0" stroke="#e7ebf1" stroke-width="1.0"/>
<line x1="674.0" y1="110.0" x2="674.0" y2="342.0" stroke="#e7ebf1" stroke-width="1.0"/>
<line x1="508.0" y1="226.0" x2="840.0" y2="226.0" stroke="#e7ebf1" stroke-width="1.0"/>
<line x1="757.0" y1="110.0" x2="757.0" y2="342.0" stroke="#e7ebf1" stroke-width="1.0"/>
<line x1="508.0" y1="284.0" x2="840.0" y2="284.0" stroke="#e7ebf1" stroke-width="1.0"/>
<line x1="840.0" y1="110.0" x2="840.0" y2="342.0" stroke="#e7ebf1" stroke-width="1.0"/>
<line x1="508.0" y1="342.0" x2="840.0" y2="342.0" stroke="#e7ebf1" stroke-width="1.0"/>
<line x1="508.0" y1="342.0" x2="840.0" y2="342.0" stroke="#9aa5b5" stroke-width="1.2"/>
<line x1="508.0" y1="110.0" x2="508.0" y2="342.0" stroke="#9aa5b5" stroke-width="1.2"/>
<text x="674.0" y="374.0" font-size="11" fill="#4b5563" font-family="Arial, sans-serif" text-anchor="middle">Runtime-adjusted FLOPs</text>
<text x="466.0" y="226.0" font-size="11" fill="#4b5563" font-family="Arial, sans-serif" text-anchor="middle">Parameters</text>
<text x="508.0" y="358.0" font-size="9" fill="#697386" font-family="Arial, sans-serif" text-anchor="middle">5.8e13</text>
<text x="840.0" y="358.0" font-size="9" fill="#697386" font-family="Arial, sans-serif" text-anchor="middle">2.7e16</text>
<text x="500.0" y="346.0" font-size="9" fill="#697386" font-family="Arial, sans-serif" text-anchor="end">9.8e6</text>
<text x="500.0" y="114.0" font-size="9" fill="#697386" font-family="Arial, sans-serif" text-anchor="end">9.9e6</text>
<circle cx="535.7" cy="322.7" r="4.7" fill="#263f8f" stroke="#ffffff" stroke-width="1.4"/>
<text x="542.7" y="317.7" font-size="8" fill="#263f8f" font-family="Arial, sans-serif" text-anchor="start">A/1M</text>
<circle cx="538.2" cy="254.9" r="4.7" fill="#2f9d8f" stroke="#ffffff" stroke-width="1.4"/>
<text x="545.2" y="249.9" font-size="8" fill="#2f9d8f" font-family="Arial, sans-serif" text-anchor="start">B(x)/1M</text>
<circle cx="543.5" cy="129.3" r="4.7" fill="#d45d32" stroke="#ffffff" stroke-width="1.4"/>
<text x="550.5" y="124.3" font-size="8" fill="#d45d32" font-family="Arial, sans-serif" text-anchor="start">RGRP-control/1M</text>
<circle cx="699.1" cy="322.7" r="4.7" fill="#263f8f" stroke="#ffffff" stroke-width="1.4"/>
<text x="706.1" y="317.7" font-size="8" fill="#263f8f" font-family="Arial, sans-serif" text-anchor="start">A/33M</text>
<circle cx="702.1" cy="254.9" r="4.7" fill="#2f9d8f" stroke="#ffffff" stroke-width="1.4"/>
<text x="709.1" y="249.9" font-size="8" fill="#2f9d8f" font-family="Arial, sans-serif" text-anchor="start">B(x)/33M</text>
<circle cx="704.6" cy="129.3" r="4.7" fill="#d45d32" stroke="#ffffff" stroke-width="1.4"/>
<text x="711.6" y="124.3" font-size="8" fill="#d45d32" font-family="Arial, sans-serif" text-anchor="start">RGRP-control/33M</text>
<circle cx="774.1" cy="322.7" r="5.4" fill="#263f8f" stroke="#ffffff" stroke-width="1.4"/>
<text x="781.1" y="317.7" font-size="8" fill="#263f8f" font-family="Arial, sans-serif" text-anchor="start">A/134M</text>
<circle cx="777.0" cy="254.9" r="5.4" fill="#2f9d8f" stroke="#ffffff" stroke-width="1.4"/>
<text x="784.0" y="249.9" font-size="8" fill="#2f9d8f" font-family="Arial, sans-serif" text-anchor="start">B(x)/134M</text>
<circle cx="779.1" cy="129.3" r="5.4" fill="#d45d32" stroke="#ffffff" stroke-width="1.4"/>
<text x="786.1" y="124.3" font-size="8" fill="#d45d32" font-family="Arial, sans-serif" text-anchor="start">RGRP-control/134M</text>
<circle cx="807.5" cy="322.7" r="4.7" fill="#263f8f" stroke="#ffffff" stroke-width="1.4"/>
<text x="814.5" y="317.7" font-size="8" fill="#263f8f" font-family="Arial, sans-serif" text-anchor="start">A/249M</text>
<circle cx="810.3" cy="254.9" r="4.7" fill="#2f9d8f" stroke="#ffffff" stroke-width="1.4"/>
<text x="817.3" y="249.9" font-size="8" fill="#2f9d8f" font-family="Arial, sans-serif" text-anchor="start">B(x)/249M</text>
<circle cx="812.3" cy="129.3" r="4.7" fill="#d45d32" stroke="#ffffff" stroke-width="1.4"/>
<text x="819.3" y="124.3" font-size="8" fill="#d45d32" font-family="Arial, sans-serif" text-anchor="start">RGRP-control/249M</text>
<rect x="884.0" y="76.0" width="400.0" height="310.0" fill="#ffffff" stroke="#d7dde8"/>
<text x="898.0" y="98.0" font-size="14" fill="#111827" font-family="Arial, sans-serif" text-anchor="start">Tokens vs Runtime-Adjusted FLOPs</text>
<line x1="938.0" y1="110.0" x2="938.0" y2="342.0" stroke="#e7ebf1" stroke-width="1.0"/>
<line x1="938.0" y1="110.0" x2="1270.0" y2="110.0" stroke="#e7ebf1" stroke-width="1.0"/>
<line x1="1021.0" y1="110.0" x2="1021.0" y2="342.0" stroke="#e7ebf1" stroke-width="1.0"/>
<line x1="938.0" y1="168.0" x2="1270.0" y2="168.0" stroke="#e7ebf1" stroke-width="1.0"/>
<line x1="1104.0" y1="110.0" x2="1104.0" y2="342.0" stroke="#e7ebf1" stroke-width="1.0"/>
<line x1="938.0" y1="226.0" x2="1270.0" y2="226.0" stroke="#e7ebf1" stroke-width="1.0"/>
<line x1="1187.0" y1="110.0" x2="1187.0" y2="342.0" stroke="#e7ebf1" stroke-width="1.0"/>
<line x1="938.0" y1="284.0" x2="1270.0" y2="284.0" stroke="#e7ebf1" stroke-width="1.0"/>
<line x1="1270.0" y1="110.0" x2="1270.0" y2="342.0" stroke="#e7ebf1" stroke-width="1.0"/>
<line x1="938.0" y1="342.0" x2="1270.0" y2="342.0" stroke="#e7ebf1" stroke-width="1.0"/>
<line x1="938.0" y1="342.0" x2="1270.0" y2="342.0" stroke="#9aa5b5" stroke-width="1.2"/>
<line x1="938.0" y1="110.0" x2="938.0" y2="342.0" stroke="#9aa5b5" stroke-width="1.2"/>
<text x="1104.0" y="374.0" font-size="11" fill="#4b5563" font-family="Arial, sans-serif" text-anchor="middle">Runtime-adjusted FLOPs</text>
<text x="896.0" y="226.0" font-size="11" fill="#4b5563" font-family="Arial, sans-serif" text-anchor="middle">Train tokens</text>
<text x="938.0" y="358.0" font-size="9" fill="#697386" font-family="Arial, sans-serif" text-anchor="middle">5.8e13</text>
<text x="1270.0" y="358.0" font-size="9" fill="#697386" font-family="Arial, sans-serif" text-anchor="middle">2.7e16</text>
<text x="930.0" y="346.0" font-size="9" fill="#697386" font-family="Arial, sans-serif" text-anchor="end">9.9e5</text>
<text x="930.0" y="114.0" font-size="9" fill="#697386" font-family="Arial, sans-serif" text-anchor="end">4.1e8</text>
<circle cx="965.7" cy="322.7" r="4.7" fill="#263f8f" stroke="#ffffff" stroke-width="1.4"/>
<text x="972.7" y="317.7" font-size="8" fill="#263f8f" font-family="Arial, sans-serif" text-anchor="start">A/1M</text>
<circle cx="968.2" cy="322.7" r="4.7" fill="#2f9d8f" stroke="#ffffff" stroke-width="1.4"/>
<text x="975.2" y="317.7" font-size="8" fill="#2f9d8f" font-family="Arial, sans-serif" text-anchor="start">B(x)/1M</text>
<circle cx="973.5" cy="322.7" r="4.7" fill="#d45d32" stroke="#ffffff" stroke-width="1.4"/>
<text x="980.5" y="317.7" font-size="8" fill="#d45d32" font-family="Arial, sans-serif" text-anchor="start">RGRP-control/1M</text>
<circle cx="1129.1" cy="206.5" r="4.7" fill="#263f8f" stroke="#ffffff" stroke-width="1.4"/>
<text x="1136.1" y="201.5" font-size="8" fill="#263f8f" font-family="Arial, sans-serif" text-anchor="start">A/33M</text>
<circle cx="1132.1" cy="206.5" r="4.7" fill="#2f9d8f" stroke="#ffffff" stroke-width="1.4"/>
<text x="1139.1" y="201.5" font-size="8" fill="#2f9d8f" font-family="Arial, sans-serif" text-anchor="start">B(x)/33M</text>
<circle cx="1134.6" cy="206.5" r="4.7" fill="#d45d32" stroke="#ffffff" stroke-width="1.4"/>
<text x="1141.6" y="201.5" font-size="8" fill="#d45d32" font-family="Arial, sans-serif" text-anchor="start">RGRP-control/33M</text>
<circle cx="1204.1" cy="153.1" r="5.4" fill="#263f8f" stroke="#ffffff" stroke-width="1.4"/>
<text x="1211.1" y="148.1" font-size="8" fill="#263f8f" font-family="Arial, sans-serif" text-anchor="start">A/134M</text>
<circle cx="1207.0" cy="153.1" r="5.4" fill="#2f9d8f" stroke="#ffffff" stroke-width="1.4"/>
<text x="1214.0" y="148.1" font-size="8" fill="#2f9d8f" font-family="Arial, sans-serif" text-anchor="start">B(x)/134M</text>
<circle cx="1209.1" cy="153.1" r="5.4" fill="#d45d32" stroke="#ffffff" stroke-width="1.4"/>
<text x="1216.1" y="148.1" font-size="8" fill="#d45d32" font-family="Arial, sans-serif" text-anchor="start">RGRP-control/134M</text>
<circle cx="1237.5" cy="129.3" r="4.7" fill="#263f8f" stroke="#ffffff" stroke-width="1.4"/>
<text x="1244.5" y="124.3" font-size="8" fill="#263f8f" font-family="Arial, sans-serif" text-anchor="start">A/249M</text>
<circle cx="1240.3" cy="129.3" r="4.7" fill="#2f9d8f" stroke="#ffffff" stroke-width="1.4"/>
<text x="1247.3" y="124.3" font-size="8" fill="#2f9d8f" font-family="Arial, sans-serif" text-anchor="start">B(x)/249M</text>
<circle cx="1242.3" cy="129.3" r="4.7" fill="#d45d32" stroke="#ffffff" stroke-width="1.4"/>
<text x="1249.3" y="124.3" font-size="8" fill="#d45d32" font-family="Arial, sans-serif" text-anchor="start">RGRP-control/249M</text>
<circle cx="24.0" cy="410.0" r="5.0" fill="#263f8f" stroke="#ffffff" stroke-width="1.4"/>
<text x="34.0" y="414.0" font-size="11" fill="#172033" font-family="Arial, sans-serif" text-anchor="start">A</text>
<circle cx="174.0" cy="410.0" r="5.0" fill="#2f9d8f" stroke="#ffffff" stroke-width="1.4"/>
<text x="184.0" y="414.0" font-size="11" fill="#172033" font-family="Arial, sans-serif" text-anchor="start">B(x)</text>
<circle cx="324.0" cy="410.0" r="5.0" fill="#d45d32" stroke="#ffffff" stroke-width="1.4"/>
<text x="334.0" y="414.0" font-size="11" fill="#172033" font-family="Arial, sans-serif" text-anchor="start">RGRP-control</text>
</svg>
